#!OML:ASF F:\VICON\USERDATA\INSTALL\rory3\rory3.ASF
:FULLY-SPECIFIED
:DEGREES
51
root -0.1310796753164018 17.55384107624842 24.843686086604855 3.912266484272044 0.5204261244027133 -5.806430387656716
lfemur -40.962124887782196 4.123103622974328 -15.167662030507028
ltibia 88.62552353461896
lfoot -3.4309549945163043 -5.184053736289927
ltoes -9.344038152144883
rfemur -5.528116935468553 0.6150526611350846 33.064601711980465
rtibia 42.65435182500867
rfoot -3.559948255320684 -8.713482717767905
rtoes -17.389644235527154
lowerback nan 2.0485172823356272 5.482036987440938
upperback -1.069090206917982 4.150390753147298 2.6192863404699818
thorax -10.011895539613265 1.6705894655702909 -2.49833043578544
lowerneck -21.111475514339997 -4.2305850054605685 -1.3702828606520014
upperneck 13.43001429567776 -5.676229140213249 1.8141043841452182
head 7.698786265608654 -2.645177490857359 0.07623294308130191
lclavicle 4.250728496339722e-16 3.075753401267395e-15
lhumerus -59.573933735183935 -13.312436515907185 100.01017694755089
lradius 101.90801289743239
lwrist 36.03834849728637
lhand -24.479531925519066 1.1907623288831157
lfingers nan
lthumb 1.783646347501903 30.886091674718937
rclavicle 5.479500149894056e-16 3.706079548414389e-15
rhumerus -42.416015271986666 11.089474094639574 -93.5736350062971
rradius 112.19395039222455
rwrist -10.53062481013443
rhand -16.17133883271781 nan
rfingers nan
rthumb 9.000129411317301 11.325376609540594
52
root -0.02224877911790879 17.784910419969904 25.622547872201906 3.721991276071549 1.4234832302405724 -5.751299141016487
lfemur -41.29770862108624 2.6072949535618455 -16.02287345975708
ltibia 81.89649026495835
lfoot -4.178463208311137 -5.188628053793572
ltoes -11.627870676479745
rfemur -3.067551874893798 0.028965066136566242 32.52749976243865
rtibia 37.890353098008774
rfoot 5.386077857415178 -5.235924067677091
rtoes -9.854935092832134
lowerback nan 1.9861130663175683 5.894335850583745
upperback -1.3471903788443635 4.0474551197580935 2.328396296538845
thorax -9.812111209698768 1.6234102381912683 -2.8149679289543257
lowerneck -20.576989334398387 -4.422245763884079 -1.3872922284527829
upperneck 13.609079630658032 -5.9963576207017155 1.865243259733393
head 7.695017314699225 -2.7972544471415204 0.07918839638998398
lclavicle 2.4074698969083717e-15 2.4617385217884592e-15
lhumerus -60.43209988515356 -12.86162152137637 99.59967158213568
lradius 101.96039814625091
lwrist 36.12004863188407
lhand -24.437540857980284 0.6509741934390425
lfingers nan
lthumb 1.7407746154326984 30.377021695118067
rclavicle 1.6842863352311414e-15 2.301969256113511e-15
rhumerus -42.332344594078684 11.757524055955631 -93.55238491988409
rradius 112.95541149207163
rwrist -9.853611517556923
rhand -16.16728712620809 nan
rfingers nan
rthumb 8.247588658325322 11.679191014555748
53
root 0.08020763602037725 18.05402070310923 27.526423617516713 3.618638183578042 2.710632239300606 -5.165171495249149
lfemur -40.14081986695043 0.791693370202202 -17.1891040485974
ltibia 74.18585338339142
lfoot -4.165720594026871 -6.025045537982323
ltoes -13.464051304321426
rfemur -0.16711868120826878 -0.5105795404743838 31.388766743386924
rtibia 33.63121344693455
rfoot 14.687237177531522 -3.069993128280553
rtoes -0.00451616658550158
lowerback nan 1.8199705505823993 5.780708214358534
upperback -1.5719520249447823 3.772039175547696 2.0460599180051875
thorax -9.568023331841914 1.5245164763831958 -2.9232616359338417
lowerneck -20.066658938293163 -4.611022323304034 -1.4359029375457033
upperneck 13.817423099601116 -6.309091090420531 1.9215763994978703
head 7.706381928690851 -2.940809725489908 0.08848881465522851
lclavicle 8.712556583322629e-16 3.4419022795922486e-15
lhumerus -61.33276029115959 -12.43394218094027 99.16720823761597
lradius 102.17106877373188
lwrist 36.10534580249998
lhand -24.448993531414963 0.5318145544297395
lfingers nan
lthumb 1.7351891882295698 30.3783791785395
rclavicle 4.63882091284276e-16 3.7324411398208285e-15
rhumerus -42.43871167827129 12.347375835510373 -93.66664763907973
rradius 113.49349004975392
rwrist -9.583197112892066
rhand -16.09652714223058 nan
rfingers nan
rthumb 8.156950582009145 12.034503359155483
54
root 0.14568898294504332 18.287910589849798 28.636469173124233 3.558758317324128 3.494109516929799 -4.76411169441262
lfemur -38.43572476400284 -0.55408201408854 -17.888461605687105
ltibia 65.91747633686876
lfoot -3.66981771845938 -7.7833943289516965
ltoes -14.995575576982116
rfemur 2.197614028120828 -0.18887482489241814 30.901325529672313
rtibia 31.328774125158393
rfoot 20.65472167321719 -2.8174042340568852
rtoes 7.202538357521133
lowerback nan 1.8426911154716117 5.7277020367680604
upperback -1.828629631306021 3.7570424500863147 1.831371114771798
thorax -9.43645677444447 1.525103326705345 -3.0943459564191795
lowerneck -19.717859880802457 -4.745496510315177 -1.5275181003752833
upperneck 14.044478933486085 -6.5461017761310885 2.006260661193604
head 7.747809750871485 -3.044445545222345 0.1150174539389196
lclavicle -1.0402284083950982e-15 2.5900283247573834e-15
lhumerus -61.99308397161656 -11.993214674004669 98.80779006624873
lradius 102.5973892298504
lwrist 35.865866842232485
lhand -24.441398274185392 0.22541368581462584
lfingers nan
lthumb 1.6938629506139227 30.057019517316235
rclavicle -1.0670835918241384e-15 2.9061413693640796e-15
rhumerus -42.71476379279591 12.83877559871457 -93.92534891968059
rradius 113.79653571511207
rwrist -9.562260033568315
rhand -15.970981150195398 nan
rfingers nan
rthumb 8.27937667916316 11.91991658461139
55
root 0.23005271485865533 18.508371950694507 29.309159759140655 3.6187219401805737 4.315556158655983 -4.745369723843233
lfemur -36.04021205439019 -1.6992171812852008 -18.225073096125456
ltibia 57.350037178434285
lfoot -2.660328266948971 -10.07734366282667
ltoes -15.240696384157964
rfemur 4.114669060045422 0.7595464714872783 31.318481825827206
rtibia 31.721007954441045
rfoot 22.37356914999326 -3.337355230167271
rtoes 11.312153413463246
lowerback nan 1.7649310454401037 5.953358396471155
upperback -2.003453747243218 3.7029972097506274 1.8127226305022577
thorax -9.415579872069278 1.52108198394399 -3.1529387259114343
lowerneck -19.716829227430757 -4.878544038197418 -1.6418618513061705
upperneck 14.265524583472967 -6.767920852595175 2.095072542445501
head 7.817145266550124 -3.1362062142245413 0.14032166131929075
lclavicle -4.525280024079145e-16 2.978704935478261e-15
lhumerus -62.404552093067984 -11.67550810745184 98.5543989683035
lradius 103.31938992445073
lwrist 35.53714304533197
lhand -24.519838860176623 0.13227113292340342
lfingers nan
lthumb 1.6711108851568548 30.01435684788975
rclavicle -6.354081759734507e-16 3.307642773712938e-15
rhumerus -43.112918253674565 13.207399977542932 -94.31306936105553
rradius 113.88441629897542
rwrist -9.660817487059045
rhand -15.923068672602986 nan
rfingers nan
rthumb 8.63067212769502 11.72615357496618
